<mxfile host="app.diagrams.net" modified="2023-08-19T00:06:24.841Z" agent="Mozilla/5.0 (Windows NT 10.0; Win64; x64) AppleWebKit/537.36 (KHTML, like Gecko) Chrome/116.0.0.0 Safari/537.36" version="21.3.4" etag="MGPYsJDvaLjoD0joh6uW" type="github">
  <diagram name="PÃ¡gina-1" id="j_eYNOmwdVd7fD7ZY-qD">
    <mxGraphModel>
      <root>
        <mxCell id="0" />
        <mxCell id="1" parent="0" />
      </root>
    </mxGraphModel>
  </diagram>
</mxfile>
